<?xml version="1.0" encoding="UTF-8"?>
<svg id="Layer_2" data-name="Layer 2" xmlns="http://www.w3.org/2000/svg" viewBox="0 0 35.04 34.15">
  <g id="Layer_1-2" data-name="Layer 1">
    <path d="m20.72,25.22c1.19-.16,2.33-.36,3.42-.8,2.61-1.04,3.95-3.03,4.36-5.73.22-1.47.29-2.95-.2-4.39-.27-.82-.7-1.56-1.27-2.2-.13-.15-.15-.27-.09-.46.51-1.44.31-2.85-.2-4.24-.06-.15-.15-.18-.28-.19-.61-.08-1.17.12-1.72.33-.89.34-1.75.77-2.54,1.31-.23.16-.44.17-.7.1-2.66-.67-5.32-.67-7.98,0-.3.07-.51.03-.76-.13-1.06-.7-2.2-1.24-3.44-1.55-.9-.23-1.04-.13-1.29.75-.35,1.23-.41,2.47.04,3.69.05.14.02.23-.07.33-1.49,1.67-1.82,3.66-1.61,5.8.12,1.24.41,2.42.97,3.53.79,1.58,2.14,2.5,3.73,3.13,1.01.4,2.08.55,3.21.71-.39.43-.7.85-.86,1.37-.06.18-.14.37-.15.56-.02.33-.19.5-.5.59-1.12.31-2.23.51-3.3-.14-.56-.34-.97-.82-1.3-1.37-.5-.86-1.22-1.47-2.16-1.79-.36-.12-.73-.17-1.11-.07-.26.07-.34.2-.18.44.14.22.31.4.53.53.92.52,1.43,1.38,1.85,2.3.25.55.47,1.11.94,1.53.73.66,1.62.88,2.57.97.75.07,1.5.07,2.25-.08.25-.05.28.04.28.26,0,.93.02,1.87.03,2.8,0,.84-.55,1.22-1.34.95-3.67-1.26-6.58-3.51-8.78-6.69-1.47-2.12-2.44-4.45-2.82-7-.64-4.25.05-8.25,2.3-11.95C4.71,4.85,7.8,2.36,11.74.96,14.17.09,16.7-.15,19.27.09c3.17.3,6.03,1.42,8.59,3.3,3.11,2.29,5.26,5.28,6.37,8.97,1.21,3.99,1.08,7.96-.55,11.8-2.04,4.81-5.55,8.15-10.52,9.9-.79.28-1.31-.1-1.31-.93,0-1.52,0-3.03,0-4.55,0-.93-.1-1.85-.61-2.66-.15-.24-.34-.45-.53-.71Z"/>
  </g>
</svg>